<?xml version="1.0" encoding="utf-8"?>
<!-- Generator: Adobe Illustrator 19.2.1, SVG Export Plug-In . SVG Version: 6.00 Build 0)  -->
<svg version="1.1" id="layer" xmlns="http://www.w3.org/2000/svg" xmlns:xlink="http://www.w3.org/1999/xlink" x="0px" y="0px"
	 viewBox="0 0 652 652" style="enable-background:new 0 0 652 652;" xml:space="preserve">
<style type="text/css">
	.st0{fill:#143845;}
</style>
<g id="Symbols">
	<g id="Main-Nav-Light" transform="translate(-53.000000, -2.000000)">
		<g id="Header" transform="translate(-53.000000, 2.000000)">
			<g id="adacore-light" transform="translate(106.000000, 0.000000)">
				<path id="Fill-1" class="st0" d="M195,332.4c0-2.1-0.2-4.6-0.8-6.7c-2.5-9.6-11.7-17.7-24.4-17.7c-17.5,0-27.9,14-27.9,32.6
					c0,17.3,9.4,31.5,27.5,31.5c11.4,0,21.7-7,24.8-18.4c0.6-2.1,0.8-4.2,0.8-6.7V332.4z M212,258.3v102.5c0,7.5,0.2,16.1,0.8,21.9
					h-15.2l-0.8-14.7h-0.4c-5.2,9.5-16.3,16.6-31.5,16.6c-22.5,0-40-17.3-40-43.1c-0.2-28.4,19.2-45.5,41.7-45.5
					c14.4,0,24,6.1,28.1,12.8h0.4v-50.5H212L212,258.3z"/>
				<path id="Fill-3" class="st0" d="M292.3,362.3v-31.7c0-17-6.9-34.7-35.6-34.7c-11.7,0-23.1,3-30.8,7.4l3.8,10.3
					c6.5-4,15.6-6.3,24.4-6.3c19-0.2,21.2,12.6,21.2,19.6l0.4,13l0,14.2c0,1.6-0.2,3.3-0.8,4.9c-2.7,7.2-10.6,14.2-22.9,14.2
					c-8.5,0-15.8-4.6-15.8-14.7c0-12.3,11.6-17.1,25.2-18.6c0-0.5,0-1.1,0-2c0-2.8,0-5.8,0-8.7c-27.2,2.5-42.2,13.3-42.2,31
					c0,12.3,9.6,24.3,28.5,24.3c13.3,0,23.5-6,28.5-12.6h0.6l1.5,10.7h15.2C292.7,376.9,292.3,369.7,292.3,362.3"/>
				<path id="Fill-4" class="st0" d="M397,379c-6,2.8-18.5,5.6-34.2,5.6c-36.6,0-63.9-21-63.9-59.9c0-37.1,27.5-62,67.7-62
					c16,0,26.4,3.2,30.8,5.3l-4.2,12.4c-6.2-2.8-15.2-4.9-26-4.9c-30.4,0-50.6,17.7-50.6,48.7c0,29.1,18.3,47.5,49.6,47.5
					c10.4,0,20.8-1.9,27.5-4.9L397,379"/>
				<path id="Fill-5" class="st0" d="M440.2,373c16.2,0,28.3-13.8,28.3-33.1c0-14.4-7.9-32.4-27.9-32.4c-19.8,0-28.5,16.8-28.5,32.9
					c0,18.6,11.5,32.6,27.9,32.6H440.2z M439.6,384.6c-25,0-44.6-16.8-44.6-43.6c0-28.4,20.6-45,46.2-45c26.7,0,44.8,17.7,44.8,43.4
					c0,31.5-24,45.2-46.2,45.2H439.6L439.6,384.6z"/>
				<path id="Fill-6" class="st0" d="M494.2,324.3c0-10-0.2-18.6-0.8-26.5h14.8l0.8,16.6h0.6c4.2-11.4,14.6-18.6,26-18.6
					c1.7,0,3.1,0.2,4.6,0.5v14.4c-1.9-0.2-3.7-0.4-6-0.4c-11.9,0-20.4,8.2-22.7,19.6c-0.4,2.3-0.6,4.7-0.6,7.4v45.2H494L494.2,324.3
					"/>
				<path id="Fill-7" class="st0" d="M570.1,343l49.8,0c0.4-1.8,0.6-4.2,0.6-7.4c0-15.6-7.9-39.9-38.3-39.9
					c-27.1,0-43.9,20.1-43.9,45.9c0,25.4,17.3,42.7,45.8,42.7c14.8,0,25.2-3,31.2-5.4l-3.1-10.9c-6.2,2.3-13.7,4.2-25.8,4.2
					c-16.9,0-31.4-8.6-31.8-29.4l0-1.2c-0.1-3.3,0-6.6,0.3-9.7l0-0.1c1.3-10.7,8.7-25,26-25c18.9,0,23.5,15.4,23.3,25h-34
					C570.1,335.1,570.1,343,570.1,343"/>
				<path id="Fill-9" class="st0" d="M37.8,382.6H20.5l44-118.1h20.2L129,382.6h-17.9l-13.8-37.1l-31.3,0c0.3-0.9,3.7-11.7,3.9-11.9
					l24,0l-20-55.5L37.8,382.6"/>
			</g>
		</g>
	</g>
</g>
</svg>
